<?xml version="1.0"?>
<svg version="1.1" xmlns="http://www.w3.org/2000/svg" width="400px" height="200px" style=""><path fill="#333333" d="M45.4,96.1l47.7,0l0-6.2l-53.9,0l0,1.2l0,68.9l6.2,0l0-31.2l25.3,0l0-6.5l-25.3,0l0-26.2z M105.084,160.1l6.3,0l0-70.3l-6.3,0l0,70.3z M126.868,160l6.2,0l0-42.4q0-8.4,6.4-15q6.4-6.4,14.8-6.4t15,6.4q6.4,6.6,6.4,15l0,42.4l6.2,0l0-42.4q0-11.4-8.1-19.5t-19.5-8.1q-11.2,0-19.3,8.1t-8.1,19.5l0,42.4z"/><path fill="#e0ca00" d="M206.6,148.6c0,4.1-3.7,6.7-7.1,6.7c-3.5,0-7.1-2.4-7.1-6.6c0-4.3,3.4-6.8,7.1-6.8c3.6,0,7.1,2.5,7.1,6.7z M237.95,92.9c0,4-3.4,6.3-6.7,6.3s-6.7-2.2-6.7-6.2c0-4.1,3.2-6.5,6.7-6.5c3.4,0,6.7,2.4,6.7,6.4z M237.15,151.7c0,9.1-1.9,15.7-6.6,19.7c-3.4,2.9-7.8,4.4-14.6,4.4c-1.9,0-4.3-0.3-6.7-0.7c-1.2-0.2-1.7-0.8-1.7-1.6c0-0.3,0-0.6,0.1-0.9l1-5.6c0.2-1,0.6-1.3,1.4-1.3l0.2,0l2.7,0.3c2.3,0.2,4.5-0.3,6.1-1.1s3.6-1.9,4.6-3.8c0.9-1.8,1.4-4.4,1.4-7.7l0-6.4l0-39.3c0-1.5,1-2.2,2.4-2.2l7.4,0c1.5,0,2.3,0.6,2.3,2.2l0,44z M288.8,139.7c0,10.5-9.1,15.5-19.3,15.5c-5.2,0-10.9-1.5-15.4-3.5c-0.9-0.4-1.2-1-1.2-1.6c0-0.3,0.1-0.6,0.2-0.9l1.6-5.1c0.3-1,0.8-1.4,1.4-1.4c0.3,0,0.6,0,1.1,0.2c4.4,1.8,9.1,3.1,12.6,3.1c4.4,0,7.4-2,7.4-5.3c0-2.8-1.9-4.3-6-5.9l-7.9-3c-5.7-2.1-10.3-6.5-10.3-13.3c0-9.8,9.2-14.3,18.1-14.3c4.8,0,9.5,0.8,14.5,3c0.8,0.4,1.2,0.8,1.2,1.4c0,0.3-0.1,0.6-0.2,1l-1.7,5.4c-0.2,0.7-0.7,1.1-1.4,1.1c-0.3,0-0.7-0.1-1-0.2c-3.3-1.3-7.6-2.4-10.8-2.4c-4.2,0-6.3,2.3-6.3,4.6c0,2.2,1.1,3.6,4.9,5.1l9,3.7c5.3,2.2,9.5,6.3,9.5,12.8z"/></svg>
