<?xml version="1.0"?>
<svg version="1.1" xmlns="http://www.w3.org/2000/svg" width="230px" height="200px" style=""><path fill="#333333" d="M48,107l0-4.5c0-12.7,7.3-21.2,21.5-21.2c10.8,0,17.7,3.7,17.7,3.7l-0.3,14.7l-9,0l-1.5-7s-2.4-0.4-5.7-0.4c-5.5,0-7.7,3.3-7.7,8.5l0,6.2l13,0l-0.3,10l-12.7,0l0,32.5l10,2.5l0,8l-33,0l0-8l8-2.5l0-32.5l-9,0l0-8.5z M97.851,89.5c0-5.7,4.1-9,8.6-9c5.2,0,8.4,2.7,8.4,9c0,5.9-4.3,9.1-8.4,9.1c-5.4,0-8.6-3.2-8.6-9.1z M114.651,149.5l7,2.5l0,8l-30,0l0-8l8-2.5l0-32.5l-8-2.5l0-8l23-0.5l0,43.5z M156.302,106l0.7,6.9s9.5-7.7,18.4-7.7c9.7,0,15.2,6.9,15.2,17.8l0,26.5l7,2.5l0,8l-27.5,0l0-8l5.5-2.5l0-23.8c0-4.6-2.6-8-6.8-8c-6.2,0-10.7,5.7-10.7,5.7l0,26.1l5.5,2.5l0,8l-28.5,0l0-8l8-2.5l0-32.5l-8-2.5l0-8z"/><path fill="#e0ca00" d=""/></svg>
